<mxfile host="app.diagrams.net" modified="2023-07-26T15:33:47.424Z" agent="Mozilla/5.0 (Windows NT 10.0; Win64; x64) AppleWebKit/537.36 (KHTML, like Gecko) Chrome/115.0.0.0 Safari/537.36 Edg/115.0.1901.183" etag="2hYi_KHM6dmgfoFkLrgl" version="21.6.5" type="device">
  <diagram name="Page-1" id="zxrJkwFVknC6e5_m7QOj">
    <mxGraphModel dx="1763" dy="657" grid="1" gridSize="10" guides="1" tooltips="1" connect="1" arrows="1" fold="1" page="1" pageScale="1" pageWidth="827" pageHeight="1169" math="0" shadow="0">
      <root>
        <mxCell id="0" />
        <mxCell id="1" parent="0" />
        <mxCell id="-ogiiqHt7-vx71gmo25v-2" value="" style="endArrow=classic;html=1;rounded=0;" edge="1" parent="1">
          <mxGeometry width="50" height="50" relative="1" as="geometry">
            <mxPoint x="-700" y="90" as="sourcePoint" />
            <mxPoint x="-620" y="90" as="targetPoint" />
          </mxGeometry>
        </mxCell>
        <mxCell id="-ogiiqHt7-vx71gmo25v-6" style="edgeStyle=orthogonalEdgeStyle;rounded=0;orthogonalLoop=1;jettySize=auto;html=1;entryX=0;entryY=0.5;entryDx=0;entryDy=0;" edge="1" parent="1" source="-ogiiqHt7-vx71gmo25v-3" target="-ogiiqHt7-vx71gmo25v-4">
          <mxGeometry relative="1" as="geometry" />
        </mxCell>
        <mxCell id="-ogiiqHt7-vx71gmo25v-3" value="IO Thread" style="rounded=0;whiteSpace=wrap;html=1;" vertex="1" parent="1">
          <mxGeometry x="-620" y="60" width="120" height="60" as="geometry" />
        </mxCell>
        <mxCell id="-ogiiqHt7-vx71gmo25v-7" style="edgeStyle=orthogonalEdgeStyle;rounded=0;orthogonalLoop=1;jettySize=auto;html=1;entryX=0;entryY=0.5;entryDx=0;entryDy=0;" edge="1" parent="1" source="-ogiiqHt7-vx71gmo25v-4" target="-ogiiqHt7-vx71gmo25v-5">
          <mxGeometry relative="1" as="geometry" />
        </mxCell>
        <mxCell id="-ogiiqHt7-vx71gmo25v-10" style="edgeStyle=orthogonalEdgeStyle;rounded=0;orthogonalLoop=1;jettySize=auto;html=1;entryX=0.5;entryY=0;entryDx=0;entryDy=0;" edge="1" parent="1" source="-ogiiqHt7-vx71gmo25v-4" target="-ogiiqHt7-vx71gmo25v-3">
          <mxGeometry relative="1" as="geometry">
            <Array as="points">
              <mxPoint x="-440" y="40" />
              <mxPoint x="-560" y="40" />
            </Array>
          </mxGeometry>
        </mxCell>
        <mxCell id="-ogiiqHt7-vx71gmo25v-4" value="App thread" style="rounded=0;whiteSpace=wrap;html=1;" vertex="1" parent="1">
          <mxGeometry x="-480" y="60" width="120" height="60" as="geometry" />
        </mxCell>
        <mxCell id="-ogiiqHt7-vx71gmo25v-8" style="edgeStyle=orthogonalEdgeStyle;rounded=0;orthogonalLoop=1;jettySize=auto;html=1;entryX=0.5;entryY=1;entryDx=0;entryDy=0;" edge="1" parent="1" source="-ogiiqHt7-vx71gmo25v-5" target="-ogiiqHt7-vx71gmo25v-3">
          <mxGeometry relative="1" as="geometry">
            <Array as="points">
              <mxPoint x="-280" y="200" />
              <mxPoint x="-560" y="200" />
            </Array>
          </mxGeometry>
        </mxCell>
        <mxCell id="-ogiiqHt7-vx71gmo25v-9" style="edgeStyle=orthogonalEdgeStyle;rounded=0;orthogonalLoop=1;jettySize=auto;html=1;entryX=0.5;entryY=0;entryDx=0;entryDy=0;" edge="1" parent="1" source="-ogiiqHt7-vx71gmo25v-5" target="-ogiiqHt7-vx71gmo25v-4">
          <mxGeometry relative="1" as="geometry">
            <Array as="points">
              <mxPoint x="-280" y="40" />
              <mxPoint x="-420" y="40" />
            </Array>
          </mxGeometry>
        </mxCell>
        <mxCell id="-ogiiqHt7-vx71gmo25v-5" value="CPU Thread" style="rounded=0;whiteSpace=wrap;html=1;" vertex="1" parent="1">
          <mxGeometry x="-340" y="60" width="120" height="60" as="geometry" />
        </mxCell>
        <mxCell id="-ogiiqHt7-vx71gmo25v-11" value="" style="rounded=0;whiteSpace=wrap;html=1;" vertex="1" parent="1">
          <mxGeometry x="-770" y="230" width="210" height="350" as="geometry" />
        </mxCell>
        <mxCell id="-ogiiqHt7-vx71gmo25v-12" value="" style="rounded=0;whiteSpace=wrap;html=1;" vertex="1" parent="1">
          <mxGeometry x="-530" y="230" width="220" height="350" as="geometry" />
        </mxCell>
        <mxCell id="-ogiiqHt7-vx71gmo25v-13" value="" style="rounded=0;whiteSpace=wrap;html=1;" vertex="1" parent="1">
          <mxGeometry x="-280" y="230" width="220" height="350" as="geometry" />
        </mxCell>
      </root>
    </mxGraphModel>
  </diagram>
</mxfile>
